<?xml version="1.0"?>
<svg version="1.1" xmlns="http://www.w3.org/2000/svg" width="142px" height="36px" style=""><path fill="#" d="M10.494,21.96l0,2.42l-4.444,0l0,4.18l3.938,0l0.506-1.804l1.98,0l0,4.444l-11.484,0l0-1.87l1.65-0.66l0-10.34l-1.65-0.66l0-1.87l5.06-0.11l6.16,0l0,4.246l-1.98,0l-0.55-1.606l-3.63,0l0,3.63l4.444,0z M18.02922,27.35l0.176,1.43s0.77,0.22,1.848,0.22c1.21,0,1.804-0.374,1.804-1.078c0-1.804-5.874-1.144-5.874-5.06c0-2.75,2.2-3.762,4.532-3.762c1.98,0,4.092,0.66,4.092,0.66l-0.088,3.3l-1.87,0l-0.33-1.32s-0.638-0.22-1.518-0.22c-0.946,0-1.518,0.396-1.518,1.122c0,1.782,5.874,1.012,5.874,4.818c0,2.53-2.046,3.96-5.06,3.96c-2.09,0-4.048-0.484-4.048-0.484l0-3.586l1.98,0z M36.03644,28.384l0.792,1.672c-1.078,0.792-2.31,1.364-3.74,1.364c-2.53,0-3.256-1.76-3.256-4.29l0-5.06l-2.046,0l0-2.134l2.046-0.286l0-3.036l3.3-0.594l0,3.63l3.08,0l0,2.42l-3.08,0l0,4.84c0,1.408,0.242,1.98,1.166,1.98c0.594,0,1.452-0.352,1.738-0.506z M46.84966,31.2l-0.396-1.43s-1.694,1.65-3.564,1.65c-2.134,0-3.432-1.254-3.432-3.454c0-2.596,1.958-3.63,5.302-3.63l1.54,0l0-1.21c0-1.122-0.594-1.606-1.694-1.606c-1.122,0-1.936,0.33-1.936,0.33l-0.33,1.386l-1.98,0l-0.154-3.256s2.662-0.88,4.774-0.88c3.344,0,4.62,1.166,4.62,4.356l0,5.434l1.65,0.396l0,1.76z M46.29966,26.206l-1.254,0c-1.716,0-2.398,0.44-2.398,1.43c0,0.836,0.462,1.32,1.298,1.32c1.166,0,2.354-1.276,2.354-1.276l0-1.474z M61.90888,28.384l0.792,1.672c-1.078,0.792-2.31,1.364-3.74,1.364c-2.53,0-3.256-1.76-3.256-4.29l0-5.06l-2.046,0l0-2.134l2.046-0.286l0-3.036l3.3-0.594l0,3.63l3.08,0l0,2.42l-3.08,0l0,4.84c0,1.408,0.242,1.98,1.166,1.98c0.594,0,1.452-0.352,1.738-0.506z M75.9561,25.986l-7.304,0c0.132,1.76,1.144,2.794,2.662,2.794c1.826,0,3.696-1.034,3.696-1.034l0.946,1.826s-2.2,1.848-5.016,1.848c-3.784,0-5.72-2.2-5.72-5.94c0-3.85,2.178-6.38,5.874-6.38c3.278,0,4.994,2.024,4.994,5.17c0,0.836-0.132,1.65-0.132,1.716z M68.6961,23.94l3.982,0c0-1.254-0.528-2.2-1.804-2.2c-1.232,0-2.002,0.902-2.178,2.2z M83.77732,19.32l0.198,1.518s1.584-1.738,3.058-1.738c1.21,0,2.046,0.396,2.046,0.396l-0.176,4.224l-1.98,0l-0.33-1.87c-1.276,0-2.376,1.232-2.376,1.232l0,5.808l2.2,0.55l0,1.76l-7.26,0l0-1.76l1.76-0.55l0-7.15l-1.76-0.55l0-1.76z M90.82854,21.19l0-1.76l5.874-0.11l0,1.87l-1.232,0.22l1.958,6.16l1.87-6.094l-1.276-0.286l0-1.76l5.918-0.11l0,1.87l-1.364,0.286l-3.234,9.02c-1.056,2.904-2.486,5.984-5.984,5.984c-0.748,0-2.134-0.176-2.134-0.176l0.308-2.354l1.43,0c1.76,0,2.574-1.87,2.948-2.728l-3.916-9.68z"/><path fill="#" d=""/></svg>
